<svg width="32" height="32" viewBox="0 0 32 32" fill="none" xmlns="http://www.w3.org/2000/svg">
<path d="M13.72 5.14645L2.42669 23.9998C2.19385 24.403 2.07065 24.8602 2.06935 25.3258C2.06804 25.7914 2.18868 26.2493 2.41926 26.6538C2.64984 27.0583 2.98233 27.3954 3.38364 27.6316C3.78495 27.8677 4.24109 27.9947 4.70669 27.9998H27.2934C27.759 27.9947 28.2151 27.8677 28.6164 27.6316C29.0177 27.3954 29.3502 27.0583 29.5808 26.6538C29.8114 26.2493 29.932 25.7914 29.9307 25.3258C29.9294 24.8602 29.8062 24.403 29.5734 23.9998L18.28 5.14645C18.0423 4.75459 17.7077 4.43061 17.3083 4.20576C16.9089 3.98092 16.4583 3.86279 16 3.86279C15.5417 3.86279 15.0911 3.98092 14.6918 4.20576C14.2924 4.43061 13.9577 4.75459 13.72 5.14645Z" stroke="#EB5757" stroke-width="3" stroke-linecap="round" stroke-linejoin="round"/>
<path d="M16 12V17.3333" stroke="#EB5757" stroke-width="3" stroke-linecap="round" stroke-linejoin="round"/>
<path d="M16 22.6665H16.0133" stroke="#EB5757" stroke-width="3" stroke-linecap="round" stroke-linejoin="round"/>
</svg>
