<svg xmlns="http://www.w3.org/2000/svg" viewBox="0 0 410 404">
  <defs>
    <linearGradient id="vite-grad1" x1="6.45%" x2="43.76%" y1="11.81%" y2="78.35%">
      <stop offset="0%" stop-color="#41D1FF"/>
      <stop offset="100%" stop-color="#BD34FE"/>
    </linearGradient>
    <linearGradient id="vite-grad2" x1="64.14%" x2="81.74%" y1="24.55%" y2="80.28%">
      <stop offset="0%" stop-color="#FFEA83"/>
      <stop offset="8.33%" stop-color="#FFDD35"/>
      <stop offset="100%" stop-color="#FFA800"/>
    </linearGradient>
  </defs>
  <g fill="none" fill-rule="evenodd">
    <path fill="url(#vite-grad1)" d="M399.641 59.525L215.889 388.755c-3.21 5.79-11.598 5.803-14.828.024L9.872 59.55c-3.606-6.244 1.38-13.98 8.43-12.788l187.308 31.834a8.21 8.21 0 0 0 2.74-.002l182.83-31.819c7.04-1.226 12.05 6.472 8.486 12.715Z"/>
    <path fill="url(#vite-grad2)" d="M292.965 1.574L156.01 27.665a4.105 4.105 0 0 0-3.33 4.031l4.49 199.427a4.105 4.105 0 0 0 5.675 3.648l39.888-14.746c2.244-.83 4.712.476 5.312 2.78l11.84 45.692c.6 2.303 3.068 3.61 5.312 2.78l27.502-10.17a4.105 4.105 0 0 0 2.596-3.788l-1.444-79.986c-.04-2.242 1.748-4.076 3.99-4.037l17.854.3c2.622.044 4.655-2.27 4.18-4.853L297.1 5.348c-.433-2.378-2.66-3.991-5.044-3.774Z"/>
  </g>
</svg>
